# xmcd
# 
# Track frame offsets:
#     150
#     9715
#     16777
#     28303
#     38358
#     51212
#     68606
#     82395
#     94181
#     105092
#     114263
#     127352
#     138268
#     149700
#     169752
#     179781
#     196891
#     210312
#     225006
#     233960
#     243096
#     261585
#     277719
#     290161
#     308085
#     323553
#     336498
# 
# Disc length: 4563
# 
# Revision: 2
# Processed by: cddbd v1.5.2PL0 Copyright (c) Steve Scherf et al.
# Submitted via: fre:ac v1.0.31
# 
DISCID=8011d11b
DTITLE=Justament - Kuuskümmend seitse CD1
DYEAR=2009
DGENRE=Country
TTITLE0=Paradiis
TTITLE1=Kinopilet
TTITLE2=Kodu
TTITLE3=Asfalttee
TTITLE4=Banjolugu
TTITLE5=Kolimine
TTITLE6=Ainult siis
TTITLE7=Liiklussaade
TTITLE8=Armastuse lugu
TTITLE9=Pillimees
TTITLE10=Pruudid
TTITLE11=Rikkis piip
TTITLE12=Vaba mees
TTITLE13=Igal vennal vaateviis
TTITLE14=Sel ööl kui ma sündisin
TTITLE15=Humalate jook (Nikolaika)
TTITLE16=Ratsamees
TTITLE17=Kes teisele auku kaevab
TTITLE18=Telegraaf
TTITLE19=Kiirrong
TTITLE20=Ballaad kahest rännumehest
TTITLE21="S"
TTITLE22=Lõbus töö
TTITLE23=Kontsert metsas
TTITLE24=Uus maailm
TTITLE25=See vana hea kantri
TTITLE26=Õunaraks
EXTD=Submitted by Dandee
EXTT0=
EXTT1=
EXTT2=
EXTT3=
EXTT4=
EXTT5=
EXTT6=
EXTT7=
EXTT8=
EXTT9=
EXTT10=
EXTT11=
EXTT12=
EXTT13=
EXTT14=
EXTT15=
EXTT16=
EXTT17=
EXTT18=
EXTT19=
EXTT20=
EXTT21=
EXTT22=
EXTT23=
EXTT24=
EXTT25=
EXTT26=
PLAYORDER=
